<?xml version="1.0" encoding="utf-8"?>
<!-- Generator: Adobe Illustrator 24.0.1, SVG Export Plug-In . SVG Version: 6.00 Build 0)  -->
<svg version="1.1" id="图层_1" xmlns="http://www.w3.org/2000/svg" xmlns:xlink="http://www.w3.org/1999/xlink" x="0px" y="0px"
	 viewBox="0 0 40 40" style="enable-background:new 0 0 40 40;" xml:space="preserve">
<style type="text/css">
	.st0{fill:#0A58F7;}
	.st1{fill:none;}
	.st2{fill:#FFFFFF;}
</style>
<desc>Created with Pixso.</desc>
<path id="尺寸_x3D_40" class="st0" d="M20,0L20,0c11,0,20,9,20,20l0,0c0,11-9,20-20,20l0,0C9,40,0,31,0,20l0,0C0,9,9,0,20,0z"/>
<polygon class="st1" points="13.8,21.3 18.3,21.3 16,14.5 "/>
<g>
	<path class="st2" d="M23.4,11.2L23.4,11.2c-0.9,0-1.5,0.9-1.2,1.7l0.3,1c0.2,0.5,0.7,0.9,1.2,0.9l0,0c0.9,0,1.5-0.9,1.2-1.7l-0.3-1
		C24.4,11.5,23.9,11.2,23.4,11.2z"/>
	<path class="st2" d="M29.6,27.1l-3-9.2c-0.2-0.5-0.7-0.9-1.2-0.9l0,0c-0.9,0-1.5,0.9-1.2,1.7l3,9.2c0.2,0.5,0.7,0.9,1.2,0.9l0,0
		C29.2,28.8,29.9,27.9,29.6,27.1z"/>
	<path class="st2" d="M19.4,13.4h-2.7c-0.6,0-1.1,0.4-1.2,0.9l-4.2,12.8c-0.3,0.9,0.4,1.7,1.2,1.7l0,0c0.6,0,1.1-0.4,1.2-0.9
		l1.1-3.2c0.2-0.5,0.7-0.9,1.2-0.9h4.1c0.6,0,1.1,0.4,1.2,0.9l1.1,3.2c0.2,0.5,0.7,0.9,1.2,0.9l0,0c0.9,0,1.5-0.9,1.2-1.7l-4.2-12.8
		C20.4,13.7,19.9,13.4,19.4,13.4z M16.3,19.9l0.4-1.3c0.4-1.2,2.1-1.2,2.5,0l0.4,1.3c0.3,0.9-0.4,1.7-1.2,1.7h-0.9
		C16.7,21.6,16.1,20.7,16.3,19.9z"/>
</g>
</svg>
