<?xml version="1.0" encoding="utf-8"?>
<!-- Generator: Adobe Illustrator 24.0.1, SVG Export Plug-In . SVG Version: 6.00 Build 0)  -->
<svg version="1.1" id="图层_1" xmlns="http://www.w3.org/2000/svg" xmlns:xlink="http://www.w3.org/1999/xlink" x="0px" y="0px"
	 viewBox="0 0 21 21" style="enable-background:new 0 0 21 21;" xml:space="preserve">
<style type="text/css">
	.st0{fill:none;}
	.st1{fill:#E58B43;}
	.st2{fill-rule:evenodd;clip-rule:evenodd;fill:#FFFFFF;fill-opacity:0.8;}
</style>
<desc>Created with Pixso.</desc>
<rect y="0" class="st0" width="21" height="21"/>
<circle id="circle" class="st1" cx="10.5" cy="10.5" r="10.5"/>
<path id="减去顶层" class="st2" d="M11.5,5.9l4.2,3.3c0.2,0.2,0.3,0.5,0.1,0.8c-0.1,0.1-0.3,0.2-0.4,0.2h-0.8v4.1
	c0,0.6-0.5,1.1-1.1,1.1h-1.8v-1.6c0-0.6-0.5-1.1-1.1-1.1h0c-0.6,0-1.1,0.5-1.1,1l0,0.1v1.6H7.6c-0.6,0-1.1-0.5-1.1-1.1v-4.1H5.7
	c-0.3,0-0.5-0.3-0.5-0.6c0-0.2,0.1-0.3,0.2-0.5l4.2-3.3C10.1,5.4,10.9,5.4,11.5,5.9z"/>
</svg>
